Coordinates
version=1
nRows=8
nColumns=63
inDegrees=yes

Units are S.I. units (second, meters, Newtons, ...)
If the header above contains a line with 'inDegrees', this indicates whether rotational values are in degrees (yes) or radians (no).

endheader
time	pelvis_tilt	pelvis_list	pelvis_rotation	pelvis_tx	pelvis_ty	pelvis_tz	hip_flexion_r	hip_adduction_r	hip_rotation_r	knee_angle_r	knee_angle_r_beta	ankle_angle_r	subtalar_angle_r	mtp_angle_r	hip_flexion_l	hip_adduction_l	hip_rotation_l	knee_angle_l	knee_angle_l_beta	ankle_angle_l	subtalar_angle_l	mtp_angle_l	L5_S1_Flex_Ext	L5_S1_Lat_Bending	L5_S1_axial_rotation	L4_L5_Flex_Ext	L4_L5_Lat_Bending	L4_L5_axial_rotation	L3_L4_Flex_Ext	L3_L4_Lat_Bending	L3_L4_axial_rotation	L2_L3_Flex_Ext	L2_L3_Lat_Bending	L2_L3_axial_rotation	L1_L2_Flex_Ext	L1_L2_Lat_Bending	L1_L2_axial_rotation	L1_T12_Flex_Ext	L1_T12_Lat_Bending	L1_T12_axial_rotation	Abs_r3	Abs_r2	Abs_r1	Abs_t1	Abs_t2	neck_flexion	neck_bending	neck_rotation	arm_flex_r	arm_add_r	arm_rot_r	elbow_flex_r	pro_sup_r	wrist_flex_r	wrist_dev_r	arm_flex_l	arm_add_l	arm_rot_l	elbow_flex_l	pro_sup_l	wrist_flex_l	wrist_dev_l
      1.41666667	      0.03979762	     -5.00136785	     96.80786852	      0.20122546	      0.99478611	      0.47210542	     -4.17374436	      1.37875560	     -8.49042919	      8.07457817	      0.14092797	     31.79439996	      3.70320738	      0.00000000	     -6.90198778	      0.29157413	     14.92359380	      1.70271273	      0.02971794	     24.95177966	    -13.11993326	      0.00000000	     -0.22631691	     -0.11583397	     -0.82742329	     -0.42029314	     -0.15405918	     -0.87913724	     -0.37181606	     -0.28163872	     -0.87913724	     -0.25865760	     -0.28163872	     -0.72399538	     -0.21015789	     -0.23620864	     -0.67228142	     -0.12931748	     -0.17942682	     -0.62056747	     -1.61655908	     -1.31033706	     -4.60188010	      0.00000000	      0.00000000	     20.34184352	     -2.94814351	     -1.96390785	      9.46245615	     -9.21158551	     70.22912591	     43.06692425	     61.53348546	      7.09415744	     -0.04653562	      4.99133372	     -7.42248825	     49.79897433	     51.51958920	     74.21946170	     11.74464053	     16.22089376
      1.43333333	     -0.04946008	     -5.25136821	     96.80035979	      0.20115726	      0.99435199	      0.47262956	     -3.87208731	      1.28431122	     -7.85521055	      8.16308406	      0.14247269	     31.53220717	      2.71162438	      0.00000000	     -6.56680774	      0.41617283	     14.55659570	      1.81210021	      0.03162712	     24.56876815	    -12.81326954	      0.00000000	     -0.20832676	     -0.11204797	     -0.85218080	     -0.38688362	     -0.14902380	     -0.90544209	     -0.34226003	     -0.27243343	     -0.90544209	     -0.23809665	     -0.27243343	     -0.74565820	     -0.19345222	     -0.22848822	     -0.69239690	     -0.11903791	     -0.17356230	     -0.63913560	     -1.48805718	     -1.26750904	     -4.73957393	      0.00000000	      0.00000000	     20.77425961	     -3.09487989	     -2.45378375	      9.61687458	     -9.25081508	     70.73733143	     43.10584054	     59.48568295	      7.52392272	      0.29230888	      4.86583012	     -7.42099783	     49.58539527	     51.50963940	     74.90133841	     11.56404822	     15.53602642
      1.45000000	     -0.10503133	     -5.46255007	     96.82681589	      0.20091259	      0.99404797	      0.47330071	     -3.57043334	      1.21772781	     -7.26007351	      8.30658879	      0.14497732	     31.34475501	      1.76080328	      0.00000000	     -6.27567073	      0.50153510	     14.36580614	      1.90438867	      0.03323785	     24.10946789	    -12.78575179	      0.00000000	     -0.19490583	     -0.10290930	     -0.90165854	     -0.36195962	     -0.13686938	     -0.95801220	     -0.32021079	     -0.25021368	     -0.95801220	     -0.22275787	     -0.25021368	     -0.78895122	     -0.18098955	     -0.20985265	     -0.73259756	     -0.11136919	     -0.15940651	     -0.67624390	     -1.39219285	     -1.16413063	     -5.01475429	      0.00000000	      0.00000000	     20.95747067	     -2.99465175	     -2.81645782	      9.92792732	     -9.30735510	     71.53237870	     43.17487440	     57.73973696	      7.56320121	      0.62497541	      4.76004436	     -7.39681568	     49.28302323	     51.52251589	     75.82318498	     11.36368016	     14.81095355
      1.46666667	     -0.14092800	     -5.61561500	     96.87415319	      0.20058173	      0.99397253	      0.47407226	     -3.31323178	      1.16951642	     -6.84122085	      8.46015151	      0.14765750	     31.23890885	      1.04338944	      0.00000000	     -6.03782618	      0.56026106	     14.23229024	      2.00016756	      0.03490951	     23.65607178	    -12.82219737	      0.00000000	     -0.18870978	     -0.09064341	     -0.94311781	     -0.35045293	     -0.12055573	     -1.00206267	     -0.31003130	     -0.22039038	     -1.00206267	     -0.21567641	     -0.22039038	     -0.82522808	     -0.17523590	     -0.18484004	     -0.76628322	     -0.10782877	     -0.14040664	     -0.70733835	     -1.34793509	     -1.02537635	     -5.24533830	      0.00000000	      0.00000000	     20.70927207	     -2.62740635	     -3.16474136	     10.09782326	     -9.31934547	     71.70808423	     43.10795554	     57.08744520	      7.83092557	      0.88959667	      4.75351774	     -7.37084052	     49.18314733	     51.55487177	     76.57776044	     10.94590815	     13.99474281
      1.48333333	     -0.18021307	     -5.91561397	     96.85163070	      0.20030244	      0.99377851	      0.47521630	     -2.77530590	      1.03144686	     -6.96205612	      8.82802940	      0.15407818	     31.39100535	      1.11613766	      0.00000000	     -5.53671318	      0.64585442	     13.46749083	      2.30313867	      0.04019735	     23.68837384	    -11.83914753	      0.00000000	     -0.16123811	     -0.07546580	     -0.96299314	     -0.29943530	     -0.10036951	     -1.02318021	     -0.26489809	     -0.18348754	     -1.02318021	     -0.18427904	     -0.18348754	     -0.84261900	     -0.14972571	     -0.15388985	     -0.78243193	     -0.09213146	     -0.11689652	     -0.72224486	     -1.15170771	     -0.85368419	     -5.35587895	      0.00000000	      0.00000000	     20.31501323	     -2.24255938	     -3.25158223	     10.19794652	     -9.39766472	     71.72596282	     43.20161773	     56.58540951	      7.48037203	      1.30541752	      4.84833242	     -7.34986974	     49.39102400	     51.61344830	     75.86832376	     10.38894212	     13.63182017
      1.50000000	     -0.22743204	     -5.69123031	     96.86942008	      0.20009387	      0.99440723	      0.47567561	     -2.95294181	      0.99184126	     -7.15832494	      8.91734119	      0.15563696	     31.27204359	      1.10797443	      0.00000000	     -5.71534563	      0.66340385	     13.11595502	      2.38911363	      0.04169790	     23.62927468	    -11.53477996	      0.00000000	     -0.19921325	     -0.06404210	     -0.95509146	     -0.36995892	     -0.08517599	     -1.01478467	     -0.32728744	     -0.15571196	     -1.01478467	     -0.22768082	     -0.15571196	     -0.83570502	     -0.18498942	     -0.13059465	     -0.77601181	     -0.11383045	     -0.09920121	     -0.71631859	     -1.42296029	     -0.72445703	     -5.31193215	      0.00000000	      0.00000000	     19.07891989	     -1.43186613	     -3.73996260	     10.16286908	     -9.40224567	     71.39493931	     43.10475438	     56.37278149	      7.34768343	      1.42611986	      5.02224833	     -7.29148931	     49.60465252	     51.62891939	     76.22636637	      9.86190818	     13.37883485
      1.51666667	     -0.36598515	     -5.92913140	     96.83627963	      0.20025321	      0.99439671	      0.47614290	     -2.57159037	      0.88755403	     -6.20990317	      9.13911925	      0.15950772	     30.98094129	     -0.47120676	      0.00000000	     -5.34332344	      0.83444711	     13.31856999	      2.60867566	      0.04552998	     23.79208000	    -11.73080370	      0.00000000	     -0.16476996	     -0.07281363	     -0.85457627	     -0.30599430	     -0.09684213	     -0.90798729	     -0.27070057	     -0.17703907	     -0.90798729	     -0.18831559	     -0.17703907	     -0.74775424	     -0.15300539	     -0.14848156	     -0.69434322	     -0.09414956	     -0.11278832	     -0.64093221	     -1.17693537	     -0.82368237	     -4.75289686	      0.00000000	      0.00000000	     17.95921536	     -0.98457708	     -4.90057883	      9.01722324	     -9.19482357	     67.84234799	     42.83566244	     60.41129711	      8.38952005	      1.84378624	      5.33749277	     -7.24900259	     50.31107253	     51.34975227	     77.17345436	     10.16300975	     12.45038346
      1.53333333	     -0.48127173	     -5.99904590	     96.79617519	      0.20033212	      0.99460924	      0.47653060	     -2.35885237	      0.77214507	     -5.97046877	      9.38831290	      0.16385697	     30.83152170	     -1.12811761	      0.00000000	     -5.11036831	      0.94908191	     12.63519667	      2.87698428	      0.05021285	     24.53990284	    -10.55685448	      0.00000000	     -0.15573622	     -0.07450075	     -0.76879078	     -0.28921773	     -0.09908599	     -0.81684021	     -0.25585903	     -0.18114111	     -0.81684021	     -0.17799092	     -0.18114111	     -0.67269193	     -0.14461665	     -0.15192192	     -0.62464251	     -0.08898767	     -0.11540166	     -0.57659309	     -1.11240821	     -0.84276734	     -4.27578369	      0.00000000	      0.00000000	     16.89934072	     -0.66131476	     -5.87986093	      8.30655458	     -9.09276056	     66.01029707	     42.61796914	     62.16380803	      8.29715774	      1.38852001	      5.64056934	     -7.17510097	     51.02746663	     51.10573639	     76.39580520	     10.31462076	     12.32007962
